<svg fill="#000000" xmlns="http://www.w3.org/2000/svg"  viewBox="0 0 50 50" width="100px" height="100px"><path d="M 25 4 C 25.566406 4 26.097656 4.21875 26.496094 4.621094 L 45.378906 23.503906 C 46.207031 24.328125 46.207031 25.671875 45.378906 26.496094 L 26.496094 45.378906 C 26.097656 45.78125 25.566406 46 25 46 C 24.433594 46 23.902344 45.78125 23.503906 45.378906 L 4.621094 26.496094 C 3.792969 25.671875 3.792969 24.328125 4.621094 23.503906 L 16.941406 11.183594 L 19.214844 13.457031 C 18.667969 15.488281 19.21875 17.703125 20.757813 19.242188 C 21.125 19.609375 21.542969 19.925781 22 20.1875 L 22 29.816406 C 20.179688 30.867188 19 32.824219 19 35 C 19 38.308594 21.691406 41 25 41 C 28.308594 41 31 38.308594 31 35 C 31 32.824219 29.820313 30.867188 28 29.816406 L 28 22.242188 L 29.214844 23.457031 C 28.667969 25.488281 29.21875 27.703125 30.757813 29.242188 C 31.890625 30.375 33.398438 31 35 31 C 36.601563 31 38.109375 30.375 39.242188 29.242188 C 41.582031 26.902344 41.582031 23.097656 39.242188 20.757813 C 38.113281 19.628906 36.617188 19.007813 35.019531 19.007813 C 34.492188 19.007813 33.964844 19.078125 33.457031 19.214844 L 30.785156 16.542969 C 31.332031 14.511719 30.78125 12.296875 29.242188 10.757813 C 28.113281 9.628906 26.617188 9.007813 25.019531 9.007813 C 24.492188 9.007813 23.964844 9.078125 23.457031 9.214844 L 21.183594 6.941406 L 23.503906 4.621094 C 23.902344 4.21875 24.433594 4 25 4 M 25 2 C 23.945313 2 22.890625 2.402344 22.089844 3.207031 L 18.355469 6.941406 L 22.976563 11.5625 C 23.605469 11.195313 24.3125 11.007813 25.019531 11.007813 C 26.035156 11.007813 27.050781 11.394531 27.828125 12.171875 C 29.144531 13.488281 29.335938 15.488281 28.433594 17.019531 L 32.976563 21.5625 C 33.605469 21.195313 34.3125 21.007813 35.019531 21.007813 C 36.035156 21.007813 37.050781 21.394531 37.828125 22.171875 C 39.390625 23.734375 39.390625 26.265625 37.828125 27.828125 C 37.046875 28.609375 36.023438 29 35 29 C 33.976563 29 32.953125 28.609375 32.171875 27.828125 C 30.855469 26.511719 30.664063 24.511719 31.566406 22.976563 L 27.023438 18.433594 C 26.699219 18.625 26.355469 18.765625 26 18.855469 L 26 31.140625 C 27.722656 31.585938 29 33.136719 29 35 C 29 37.210938 27.210938 39 25 39 C 22.792969 39 21 37.210938 21 35 C 21 33.136719 22.277344 31.585938 24 31.140625 L 24 18.855469 C 23.332031 18.683594 22.695313 18.351563 22.171875 17.828125 C 20.855469 16.511719 20.664063 14.511719 21.566406 12.980469 L 16.941406 8.355469 L 3.207031 22.089844 C 1.597656 23.695313 1.597656 26.304688 3.207031 27.910156 L 22.089844 46.792969 C 22.890625 47.597656 23.945313 48 25 48 C 26.054688 48 27.109375 47.597656 27.910156 46.792969 L 46.792969 27.910156 C 48.402344 26.304688 48.402344 23.695313 46.792969 22.089844 L 27.910156 3.207031 C 27.109375 2.402344 26.054688 2 25 2 Z"/></svg>